<svg width="516" height="119" viewBox="0 0 516 119" fill="none" xmlns="http://www.w3.org/2000/svg">
<path d="M485.924 40.7132C487.256 36.7373 489.62 33.7222 493.016 31.668C496.412 29.5475 500.74 28.4873 506 28.4873V33.159H504.502C499.175 33.159 494.747 34.6831 491.218 37.7313C487.689 40.7132 485.924 45.6168 485.924 52.4421V83.5536H481.43V29.5807H485.924V40.7132Z" fill="white"/>
<path d="M467.841 52.94C467.841 55.3255 467.775 57.1147 467.642 58.3074H420.798C420.931 63.1448 421.996 67.2201 423.994 70.5333C425.991 73.8466 428.622 76.3315 431.884 77.9882C435.147 79.6448 438.71 80.4731 442.572 80.4731C447.899 80.4731 452.36 79.1809 455.956 76.5966C459.551 73.946 461.815 70.3677 462.748 65.8616H467.442C466.377 71.3616 463.646 75.8345 459.252 79.2803C454.857 82.6598 449.297 84.3496 442.572 84.3496C437.511 84.3496 432.983 83.2231 428.988 80.9701C424.993 78.7171 421.863 75.5032 419.599 71.3285C417.335 67.0875 416.203 62.1508 416.203 56.5183C416.203 50.8857 417.302 45.9821 419.499 41.8074C421.763 37.6327 424.893 34.452 428.888 32.2653C432.883 30.0122 437.444 28.8857 442.572 28.8857C447.765 28.8857 452.26 30.0122 456.056 32.2653C459.918 34.452 462.847 37.4008 464.845 41.1116C466.843 44.7562 467.841 48.699 467.841 52.94ZM463.347 54.6297C463.547 49.8586 462.681 45.8165 460.75 42.5032C458.886 39.19 456.322 36.7382 453.059 35.1478C449.796 33.4912 446.267 32.6628 442.472 32.6628C438.676 32.6628 435.147 33.4912 431.884 35.1478C428.688 36.7382 426.058 39.19 423.994 42.5032C421.996 45.8165 420.931 49.8586 420.798 54.6297H463.347Z" fill="white"/>
<path d="M356.292 43.7954C357.823 39.4219 360.586 35.8436 364.582 33.0604C368.643 30.2773 373.538 28.8857 379.264 28.8857C384.325 28.8857 388.819 30.0122 392.748 32.2653C396.743 34.5183 399.84 37.7321 402.037 41.9068C404.301 46.0815 405.433 50.952 405.433 56.5183C405.433 62.0845 404.301 66.9881 402.037 71.2291C399.84 75.4038 396.743 78.6508 392.748 80.9701C388.819 83.2231 384.325 84.3496 379.264 84.3496C373.604 84.3496 368.743 82.958 364.681 80.1749C360.686 77.3255 357.89 73.7472 356.292 69.44V109H351.797V29.5815H356.292V43.7954ZM400.838 56.5183C400.838 51.6147 399.906 47.3737 398.042 43.7954C396.177 40.2171 393.547 37.5002 390.151 35.6448C386.822 33.7231 382.96 32.7622 378.565 32.7622C374.37 32.7622 370.574 33.7562 367.179 35.7442C363.783 37.6659 361.119 40.449 359.188 44.0936C357.257 47.6719 356.292 51.8134 356.292 56.5183C356.292 61.2893 357.257 65.4972 359.188 69.1418C361.119 72.7201 363.783 75.5032 367.179 77.4912C370.574 79.4128 374.37 80.3737 378.565 80.3737C382.96 80.3737 386.822 79.4128 390.151 77.4912C393.547 75.5695 396.177 72.8195 398.042 69.2412C399.906 65.6628 400.838 61.4219 400.838 56.5183Z" fill="white"/>
<path d="M311.293 84.3496C306.233 84.3496 301.671 83.2231 297.609 80.9701C293.548 78.7171 290.351 75.5032 288.021 71.3285C285.757 67.0875 284.625 62.1508 284.625 56.5183C284.625 50.952 285.79 46.0815 288.121 41.9068C290.451 37.6659 293.648 34.452 297.709 32.2653C301.838 30.0122 306.432 28.8857 311.493 28.8857C316.554 28.8857 321.115 30.0122 325.177 32.2653C329.238 34.452 332.401 37.6327 334.665 41.8074C336.996 45.9821 338.161 50.8857 338.161 56.5183C338.161 62.1508 336.996 67.0875 334.665 71.3285C332.335 75.5032 329.105 78.7171 324.977 80.9701C320.915 83.2231 316.354 84.3496 311.293 84.3496ZM311.293 80.3737C315.222 80.3737 318.884 79.5122 322.28 77.7894C325.743 76.0002 328.506 73.3165 330.57 69.7381C332.634 66.1598 333.666 61.7532 333.666 56.5183C333.666 51.3496 332.634 46.9761 330.57 43.3978C328.506 39.8195 325.776 37.1689 322.38 35.446C318.984 33.6568 315.322 32.7622 311.393 32.7622C307.464 32.7622 303.802 33.6568 300.406 35.446C297.077 37.1689 294.38 39.8195 292.316 43.3978C290.252 46.9761 289.22 51.3496 289.22 56.5183C289.22 61.7532 290.218 66.1598 292.216 69.7381C294.28 73.3165 296.977 76.0002 300.306 77.7894C303.702 79.5122 307.365 80.3737 311.293 80.3737Z" fill="white"/>
<path d="M270.948 10V83.5542H266.453V10H270.948Z" fill="white"/>
<path d="M252.865 52.94C252.865 55.3255 252.798 57.1147 252.665 58.3074H205.821C205.954 63.1448 207.02 67.2201 209.017 70.5333C211.015 73.8466 213.645 76.3315 216.908 77.9882C220.171 79.6448 223.733 80.4731 227.595 80.4731C232.922 80.4731 237.383 79.1809 240.979 76.5966C244.575 73.946 246.839 70.3677 247.771 65.8616H252.465C251.4 71.3616 248.67 75.8345 244.275 79.2803C239.88 82.6598 234.32 84.3496 227.595 84.3496C222.534 84.3496 218.007 83.2231 214.011 80.9701C210.016 78.7171 206.886 75.5032 204.623 71.3285C202.359 67.0875 201.227 62.1508 201.227 56.5183C201.227 50.8857 202.325 45.9821 204.523 41.8074C206.787 37.6327 209.916 34.452 213.911 32.2653C217.907 30.0122 222.468 28.8857 227.595 28.8857C232.789 28.8857 237.284 30.0122 241.079 32.2653C244.941 34.452 247.871 37.4008 249.869 41.1116C251.866 44.7562 252.865 48.699 252.865 52.94ZM248.37 54.6297C248.57 49.8586 247.704 45.8165 245.773 42.5032C243.909 39.19 241.345 36.7382 238.083 35.1478C234.82 33.4912 231.291 32.6628 227.495 32.6628C223.7 32.6628 220.171 33.4912 216.908 35.1478C213.712 36.7382 211.081 39.19 209.017 42.5032C207.02 45.8165 205.954 49.8586 205.821 54.6297H248.37Z" fill="white"/>
<path d="M166.012 70.7313L179.996 28.4873H194.878L174.402 83.5536H157.423L137.047 28.4873H152.029L166.012 70.7313Z" fill="#CF1767"/>
<path d="M132.73 54.8287C132.73 56.8166 132.596 58.6058 132.33 60.1962H91.8784C92.2113 64.1721 93.6096 67.2865 96.0734 69.5395C98.5371 71.7925 101.567 72.919 105.163 72.919C110.356 72.919 114.052 70.6992 116.249 66.2594H131.331C129.733 71.5606 126.67 75.9341 122.142 79.3799C117.614 82.7594 112.054 84.4492 105.462 84.4492C100.135 84.4492 95.3409 83.2895 91.0793 80.9703C86.8843 78.5847 83.5883 75.2383 81.1911 70.9311C78.8606 66.6239 77.6953 61.654 77.6953 56.0215C77.6953 50.3227 78.8606 45.3197 81.1911 41.0124C83.5217 36.7052 86.7845 33.3919 90.9794 31.0727C95.1744 28.7534 100.002 27.5938 105.462 27.5938C110.723 27.5938 115.417 28.7203 119.545 30.9733C123.74 33.2263 126.97 36.4401 129.234 40.6148C131.564 44.7233 132.73 49.4612 132.73 54.8287ZM118.247 50.8528C118.18 47.2745 116.882 44.4251 114.352 42.3046C111.821 40.1178 108.725 39.0245 105.063 39.0245C101.6 39.0245 98.6703 40.0847 96.2731 42.2052C93.9426 44.2594 92.511 47.1419 91.9783 50.8528H118.247Z" fill="#CF1767"/>
<path d="M10 55.8223C10 50.256 11.0987 45.3193 13.2961 41.012C15.56 36.7048 18.623 33.3916 22.4851 31.0723C26.3472 28.753 30.642 27.5934 35.3697 27.5934C38.9654 27.5934 42.3947 28.3886 45.6574 29.9789C48.9202 31.503 51.5171 33.5572 53.4481 36.1416V10H67.6312V83.5542H53.4481V75.4036C51.7169 78.1205 49.2864 80.3072 46.1568 81.9639C43.0272 83.6205 39.3982 84.4488 35.2698 84.4488C30.6087 84.4488 26.3472 83.256 22.4851 80.8705C18.623 78.4849 15.56 75.1385 13.2961 70.8313C11.0987 66.4578 10 61.4548 10 55.8223ZM53.548 56.0211C53.548 52.6416 52.8821 49.759 51.5504 47.3735C50.2187 44.9217 48.4208 43.0663 46.1568 41.8072C43.8929 40.4819 41.4624 39.8193 38.8655 39.8193C36.2686 39.8193 33.8715 40.4488 31.6741 41.7078C29.4767 42.9669 27.6789 44.8223 26.2806 47.2741C24.9488 49.6596 24.283 52.509 24.283 55.8223C24.283 59.1355 24.9488 62.0512 26.2806 64.5693C27.6789 67.0211 29.4767 68.9096 31.6741 70.2349C33.9381 71.5602 36.3352 72.2229 38.8655 72.2229C41.4624 72.2229 43.8929 71.5934 46.1568 70.3343C48.4208 69.009 50.2187 67.1536 51.5504 64.7681C52.8821 62.3163 53.548 59.4006 53.548 56.0211Z" fill="#CF1767"/>
</svg>
